<?xml version="1.0" standalone="no"?>
<!DOCTYPE svg PUBLIC "-//W3C//DTD SVG 20010904//EN"
 "http://www.w3.org/TR/2001/REC-SVG-20010904/DTD/svg10.dtd">
<svg version="1.0" xmlns="http://www.w3.org/2000/svg"
 width="3000.000000pt" height="2961.000000pt" viewBox="0 0 3000.000000 2961.000000"
 preserveAspectRatio="xMidYMid meet">

<g transform="translate(0.000000,2961.000000) scale(0.100000,-0.100000)"
fill="#000000" stroke="none">
<path d="M14730 23121 c-96 -20 -141 -61 -194 -175 -18 -40 -67 -124 -109
-187 -94 -142 -128 -216 -134 -295 -9 -105 9 -147 151 -360 33 -49 81 -136
107 -194 98 -221 126 -418 99 -695 -27 -274 -55 -774 -80 -1409 l-20 -509 -24
-38 c-47 -71 -12 -71 -881 -10 -220 15 -401 27 -402 26 -4 -2 49 -649 53 -654
4 -4 132 29 449 114 242 66 408 95 565 101 159 6 176 2 214 -49 19 -26 21 -41
19 -150 -1 -67 -6 -135 -10 -152 -9 -30 -10 -30 -134 -46 -420 -56 -791 -151
-1154 -294 -913 -362 -1634 -963 -2214 -1847 -25 -38 -47 -68 -50 -68 -3 0
-45 213 -92 473 l-85 472 29 8 c16 5 30 7 32 5 1 -2 32 -47 69 -100 37 -54 71
-100 76 -103 4 -3 15 12 23 34 107 266 71 737 -75 1001 -17 30 -40 65 -51 78
l-21 22 -48 -91 c-126 -240 -275 -375 -452 -410 -78 -16 -173 -1 -296 47 -114
44 -192 49 -255 16 -31 -16 -196 -172 -260 -246 -5 -6 -53 -56 -104 -111 -109
-115 -164 -174 -386 -410 -439 -469 -728 -765 -825 -845 -134 -111 -373 -256
-501 -304 -36 -13 -146 -46 -245 -72 -98 -25 -185 -50 -192 -53 -7 -4 79 -18
190 -31 112 -13 211 -26 221 -29 13 -5 -14 -35 -125 -137 -128 -117 -327 -300
-653 -598 -60 -56 -132 -122 -160 -148 l-50 -47 24 -25 24 -25 61 48 c34 26
199 156 366 288 168 132 314 246 326 253 18 11 24 10 47 -10 15 -13 27 -28 27
-34 0 -5 -33 -53 -73 -105 -407 -530 -708 -1150 -888 -1826 -41 -156 -89 -368
-84 -374 10 -9 41 28 93 109 66 103 106 147 151 166 76 32 146 9 223 -74 95
-102 113 -161 158 -537 143 -1190 161 -1317 232 -1600 117 -470 356 -965 662
-1369 108 -143 323 -393 347 -404 25 -11 13 71 -41 290 -83 337 -82 419 9 510
67 66 128 84 293 81 337 -6 589 -94 777 -273 30 -29 64 -58 75 -65 12 -8 127
-41 256 -74 494 -125 866 -260 1275 -461 418 -206 759 -425 1210 -776 135
-105 388 -264 715 -449 85 -48 203 -116 261 -151 59 -35 109 -64 111 -64 13 0
110 132 102 139 -5 5 -43 21 -83 37 -44 17 -123 62 -190 109 -64 44 -145 101
-181 126 -36 25 -182 126 -325 224 -422 290 -879 622 -1085 789 -366 296 -591
497 -850 756 -519 519 -887 1001 -1207 1578 -259 469 -394 880 -428 1300 l-7
82 566 0 c558 0 566 0 566 -20 0 -19 -8 -20 -477 -22 l-478 -3 0 -25 0 -25
448 -3 447 -2 0 -30 0 -30 -392 -2 -393 -3 0 -30 0 -30 373 -3 372 -2 0 -25 0
-25 -357 -2 -358 -3 -3 -22 c-2 -14 2 -23 10 -23 7 -1 158 -1 336 0 l322 0 0
-25 0 -25 -290 0 -290 0 0 -25 0 -25 270 0 270 0 0 -25 0 -25 -235 0 -235 0 0
-25 0 -25 249 -2 248 -3 -45 -76 c-25 -42 -55 -83 -66 -90 -12 -7 -61 -16
-110 -19 -121 -7 -122 -24 -4 -39 125 -16 138 -19 138 -35 0 -10 -24 -15 -87
-21 -49 -4 -105 -10 -125 -13 l-38 -7 174 -330 c96 -181 178 -329 183 -328 4
1 27 82 51 180 44 179 280 1131 285 1146 1 4 27 -54 56 -130 109 -278 268
-615 394 -833 54 -94 235 -372 318 -490 86 -123 280 -351 418 -493 612 -628
1356 -1039 2306 -1276 138 -34 405 -87 489 -97 31 -4 59 -10 61 -14 10 -17 7
-1310 -4 -1423 -34 -352 59 -668 352 -1202 59 -108 148 -225 171 -225 13 0
125 185 184 305 144 291 222 581 269 995 15 131 18 258 19 830 0 371 1 691 2
711 l2 37 58 7 c518 62 1230 301 1687 566 527 304 1031 749 1386 1224 260 347
456 702 610 1104 58 150 150 439 164 514 4 20 10 37 14 37 8 0 80 -117 115
-187 92 -185 162 -435 241 -869 26 -139 88 -394 104 -422 6 -10 49 64 146 254
76 148 153 297 171 332 19 35 32 67 30 71 -3 4 -53 16 -111 26 -121 20 -139
39 -47 49 121 14 142 19 142 31 0 13 -83 25 -171 25 l-47 0 -12 53 c-6 28 -14
71 -17 95 l-6 42 177 0 c145 0 176 2 176 14 0 16 -43 22 -252 32 -127 6 -128
6 -128 30 l0 24 240 0 240 0 0 25 0 25 -265 0 -265 0 0 25 0 25 290 0 290 0 0
25 0 25 -310 0 -310 0 0 25 0 25 345 0 345 0 0 30 0 30 -362 2 -363 3 0 30 1
30 392 3 392 2 0 25 0 25 -412 0 c-227 0 -419 4 -426 9 -8 5 -12 17 -10 27 3
18 23 19 496 22 484 2 492 3 492 22 0 20 -7 20 -520 20 -456 0 -520 2 -520 15
0 13 73 15 598 15 l598 0 -18 -182 c-21 -205 -60 -379 -140 -626 -283 -873
-903 -1715 -1983 -2693 -510 -462 -1174 -966 -1960 -1487 -237 -157 -430 -299
-451 -333 -4 -7 9 -33 32 -68 5 -6 383 159 474 207 114 60 306 186 734 486
929 650 1189 802 1806 1056 466 192 611 255 825 355 270 126 271 127 425 180
624 215 874 238 986 89 62 -83 64 -189 8 -392 -32 -116 -94 -412 -85 -411 12
1 210 224 298 334 75 93 273 375 273 388 0 2 26 46 57 98 208 345 392 850 477
1309 41 224 59 364 106 800 49 458 87 701 119 776 10 22 42 65 72 95 63 64
186 159 206 159 15 0 164 -132 236 -208 26 -28 47 -45 47 -38 0 8 -14 74 -30
147 -100 438 -247 859 -435 1244 -102 208 -184 351 -334 580 -45 70 -153 218
-203 280 -26 33 -48 65 -48 72 0 12 46 53 60 53 4 0 87 -63 186 -141 98 -77
213 -166 254 -197 41 -31 77 -60 80 -63 3 -4 60 -50 128 -103 l123 -97 19 23
c11 13 19 28 20 34 0 6 -33 40 -72 75 -40 35 -156 140 -258 234 -294 269 -375
343 -528 481 -79 71 -138 130 -133 132 6 2 87 13 181 25 94 12 172 27 173 32
4 20 -85 56 -221 90 -397 98 -620 253 -960 667 -191 233 -309 358 -781 826
-310 308 -470 459 -499 473 -59 29 -131 21 -247 -27 -77 -32 -104 -38 -186
-42 -166 -8 -269 35 -399 167 -76 77 -92 100 -148 214 -34 70 -67 125 -73 122
-18 -12 -86 -159 -122 -265 -20 -58 -44 -148 -54 -200 -21 -116 -23 -367 -4
-455 15 -69 69 -215 79 -215 7 1 19 18 105 143 22 31 46 57 53 57 44 0 45 11
-52 -561 -51 -303 -94 -553 -96 -555 -3 -2 -15 15 -28 39 -49 87 -215 346
-283 442 -322 450 -730 844 -1192 1152 -545 363 -1177 606 -1862 715 l-142 22
-3 199 c-3 178 -1 200 14 208 28 15 237 26 346 17 208 -15 434 -89 675 -220
71 -38 132 -67 135 -63 8 8 43 699 39 776 l-2 57 -75 -44 c-229 -135 -495
-190 -790 -165 -253 21 -338 45 -392 113 -55 67 -59 104 -48 498 5 195 10 660
10 1032 0 426 4 715 11 780 14 129 50 272 89 356 17 36 28 67 26 69 -2 3 -49
-31 -104 -75 l-101 -80 -42 14 c-23 8 -114 31 -203 50 -205 44 -284 68 -373
111 -142 69 -240 173 -300 321 l-23 56 213 283 212 282 270 1 270 0 105 -163
c57 -89 138 -213 178 -275 41 -62 71 -116 69 -119 -3 -3 -53 1 -111 8 -58 7
-108 11 -110 8 -2 -2 -9 -56 -15 -119 -7 -63 -14 -128 -17 -145 -4 -21 -3 -27
5 -20 11 11 139 214 144 229 3 8 21 1 55 -22 9 -6 -2 -43 -47 -155 -33 -81
-56 -145 -52 -142 13 8 156 228 174 268 36 79 15 201 -60 357 -38 79 -60 109
-127 176 -118 118 -249 178 -444 203 -109 14 -321 21 -362 12z m315 -1222 c54
-15 123 -88 166 -175 l34 -68 7 -341 c3 -187 7 -667 7 -1067 1 -706 0 -729
-19 -781 -57 -153 -240 -215 -395 -134 -33 17 -71 56 -98 99 -40 64 -43 111
-39 656 l4 522 23 0 24 0 3 553 3 552 27 55 c32 65 44 80 81 105 50 32 110 41
172 24z m-159 -3266 c46 -21 74 -27 129 -27 85 -1 142 23 209 84 l46 43 0 -45
c0 -25 -3 -79 -6 -121 l-7 -77 -253 0 c-232 0 -253 1 -258 18 -3 9 -8 64 -12
120 l-7 104 50 -36 c28 -20 77 -48 109 -63z m415 -303 c1380 -105 2619 -835
3389 -1995 87 -133 134 -212 223 -385 339 -653 497 -1299 497 -2024 0 -665
-122 -1240 -387 -1836 -332 -745 -875 -1391 -1553 -1849 -330 -223 -632 -378
-984 -506 -340 -123 -701 -206 -1091 -252 -213 -25 -739 -24 -950 0 -370 44
-716 128 -1070 259 -193 71 -550 245 -734 357 -914 557 -1609 1429 -1938 2431
-216 660 -268 1373 -153 2090 83 514 256 1015 504 1458 75 135 85 152 170 281
299 453 670 837 1111 1151 684 486 1493 767 2370 823 123 8 473 6 596 -3z
m-5339 -1192 c-11 -18 -95 -172 -187 -343 -93 -170 -199 -364 -236 -431 -155
-277 -313 -619 -427 -919 -295 -783 -394 -1537 -306 -2350 54 -499 190 -995
408 -1488 273 -615 706 -1245 1240 -1802 95 -99 202 -214 238 -255 78 -90 180
-221 175 -226 -2 -2 -143 62 -313 142 -1050 495 -1493 672 -1894 755 -147 30
-205 24 -417 -45 -95 -31 -181 -56 -191 -56 -14 0 -38 41 -100 168 -238 489
-379 1012 -433 1602 -16 172 -16 653 0 835 127 1478 829 2884 2023 4050 173
169 421 395 434 395 3 0 -3 -15 -14 -32z m10358 -196 c177 -144 344 -304 508
-487 436 -488 756 -986 1051 -1637 92 -204 140 -325 221 -558 347 -1000 460
-2042 314 -2895 -81 -466 -233 -891 -440 -1220 -31 -49 -57 -91 -59 -93 -2 -2
-32 26 -68 61 -149 149 -349 183 -637 108 -160 -41 -228 -67 -522 -197 -187
-83 -1134 -467 -1408 -572 -8 -3 28 40 80 97 287 310 516 586 724 871 725 996
1105 2044 1133 3125 20 767 -141 1476 -539 2380 -88 198 -345 709 -501 992
-64 117 -117 215 -117 218 0 8 137 -94 260 -193z m-11414 -429 c-31 -38 -66
-79 -78 -93 -61 -71 -277 -365 -375 -511 -402 -597 -719 -1246 -953 -1949 -73
-217 -173 -566 -216 -753 -10 -44 -22 -76 -28 -74 -6 2 -96 32 -201 67 -104
36 -192 66 -194 67 -13 9 210 515 364 828 461 936 951 1655 1624 2383 113 122
148 144 57 35z m12339 -153 c745 -821 1309 -1721 1806 -2884 50 -115 88 -216
87 -224 -3 -15 -21 -22 -158 -62 -41 -12 -112 -34 -157 -48 -45 -14 -84 -24
-87 -21 -2 2 -27 94 -56 204 -299 1165 -806 2209 -1478 3050 -136 170 -132
164 -108 145 10 -8 78 -80 151 -160z m-10635 -60 c0 -20 -7 -20 -375 -20 -368
0 -375 0 -375 20 0 20 7 20 375 20 368 0 375 0 375 -20z m9520 5 c0 -13 -49
-15 -380 -15 -331 0 -380 2 -380 15 0 13 49 15 380 15 331 0 380 -2 380 -15z
m-9482 -437 c3 -17 -25 -18 -487 -18 -428 0 -491 2 -491 15 0 13 60 15 458 18
251 1 470 2 487 2 20 0 31 -6 33 -17z m9682 2 c0 -20 -7 -20 -495 -20 -488 0
-495 0 -495 20 0 20 7 20 495 20 488 0 495 0 495 -20z m-9830 -555 c0 -13 -64
-15 -515 -15 -451 0 -515 2 -515 15 0 13 64 15 515 15 451 0 515 -2 515 -15z
m10014 0 c-5 -13 -76 -15 -555 -15 -302 0 -549 4 -549 8 0 5 3 12 7 15 3 4
253 7 554 7 483 0 548 -2 543 -15z m66 -110 c0 -13 -73 -15 -595 -15 -522 0
-595 2 -595 15 0 13 73 15 595 15 522 0 595 -2 595 -15z m20 -105 c0 -6 -132
-10 -372 -11 -205 -1 -382 -2 -393 -2 -164 -2 -395 5 -395 13 0 7 200 10 580
10 380 0 580 -3 580 -10z m40 -95 c0 -13 -55 -15 -432 -15 -654 -1 -721 -1
-725 4 -23 23 42 26 583 26 504 0 574 -2 574 -15z m-10240 -130 l0 -25 -545 0
c-522 0 -545 1 -545 18 0 10 3 21 6 25 4 3 249 6 545 7 l539 0 0 -25z m10265
4 c4 -5 5 -12 4 -14 -4 -3 -1061 -9 -1136 -6 -22 1 -33 6 -33 16 0 12 77 14
579 15 405 0 582 -3 586 -11z m25 -104 c0 -13 -68 -15 -555 -15 -305 0 -555 4
-555 8 0 5 3 12 7 15 3 4 253 7 555 7 480 0 548 -2 548 -15z m-10290 -10 c0
-13 -66 -15 -557 -13 -434 2 -557 6 -561 16 -3 9 113 12 557 12 493 0 561 -2
561 -15z m-280 -174 c0 -15 -108 -100 -160 -126 -116 -59 -185 -65 -549 -53
l-184 6 -14 27 c-8 15 -12 32 -10 39 3 6 31 32 63 56 l57 45 391 5 c215 3 394
7 399 8 4 1 7 -2 7 -7z m10655 -141 c0 -13 -48 -15 -362 -18 -359 -2 -363 -2
-363 18 0 20 4 20 363 18 314 -3 362 -5 362 -18z m-10631 -865 c5 -13 -38 -15
-349 -15 -309 0 -355 2 -355 15 0 13 45 15 349 15 301 0 350 -2 355 -15z
m10396 -5 c0 -20 -7 -20 -474 -20 -306 0 -477 4 -481 10 -3 6 -3 15 0 20 4 6
175 10 481 10 467 0 474 0 474 -20z m150 -220 c0 -7 -193 -10 -560 -10 -367 0
-560 3 -560 10 0 7 193 10 560 10 367 0 560 -3 560 -10z m-417 -90 c304 0 467
-3 467 -10 0 -7 -205 -10 -595 -10 -547 0 -595 1 -595 17 0 14 13 15 128 10
70 -4 337 -7 595 -7z m-9925 -11 c-2 -6 -7 -10 -11 -10 -4 1 -250 1 -547 1
-353 0 -540 3 -540 10 0 7 190 10 551 10 388 0 550 -3 547 -11z m10435 -103
c3 -8 3 -17 0 -20 -11 -11 -1201 -7 -1208 4 -3 6 -3 15 0 20 4 6 216 10 605
10 504 0 599 -2 603 -14z m-10409 -11 c3 -9 0 -18 -7 -20 -6 -3 -268 -4 -582
-3 -533 3 -570 4 -573 21 -3 16 30 17 576 17 513 0 581 -2 586 -15z m-24 -120
c0 -13 -71 -15 -575 -15 -504 0 -575 2 -575 15 0 13 71 15 575 15 504 0 575
-2 575 -15z m10430 5 c0 -7 -198 -10 -575 -10 -377 0 -575 3 -575 10 0 7 198
10 575 10 377 0 575 -3 575 -10z m-10480 -100 c0 -20 -7 -20 -550 -20 -543 0
-550 0 -550 20 0 20 7 20 550 20 543 0 550 0 550 -20z m4976 -3581 c71 -12 64
2 85 -164 17 -131 23 -664 10 -831 -38 -479 -121 -862 -240 -1103 l-36 -74 -5
1019 c-3 561 -2 1034 2 1053 9 48 39 84 79 98 43 15 32 15 105 2z m-328 -1126
l-3 -1108 -31 -3 c-29 -3 -32 0 -57 60 -101 238 -164 537 -186 873 -6 88 -12
413 -14 723 l-3 562 148 0 148 0 -2 -1107z"/>
<path d="M14839 17586 c-2 -2 -53 -6 -114 -9 -294 -17 -642 -86 -949 -189
-417 -140 -874 -403 -1194 -686 -641 -565 -1049 -1279 -1206 -2112 -48 -252
-59 -384 -60 -690 -1 -357 21 -557 95 -860 259 -1060 981 -1952 1974 -2439
331 -163 657 -267 1015 -325 221 -36 353 -46 618 -46 662 0 1227 145 1800 462
477 264 901 646 1218 1098 366 521 588 1124 655 1775 16 154 16 577 0 725
-172 1623 -1362 2929 -2943 3230 -251 47 -490 70 -743 70 -89 0 -164 -2 -166
-4z m336 -418 c72 -83 258 -297 414 -477 156 -179 338 -389 405 -467 66 -77
297 -342 511 -588 215 -246 392 -452 393 -457 2 -5 -753 -9 -1869 -9 -1782 0
-1871 1 -1857 18 36 43 144 168 148 172 3 3 84 95 180 205 96 110 187 214 201
230 15 17 221 253 459 525 238 272 522 597 631 721 109 124 208 238 220 253
11 14 23 26 27 25 4 0 66 -68 137 -151z m-695 -193 c11 -13 9 -20 -12 -43 -14
-15 -164 -187 -335 -382 -998 -1143 -1176 -1345 -1182 -1345 -12 0 -821 469
-821 477 0 3 44 31 98 61 53 30 212 119 352 197 140 78 381 213 535 300 154
86 402 225 550 308 149 82 387 216 530 296 143 80 263 146 266 146 4 0 12 -7
19 -15z m1498 -203 c197 -115 623 -363 947 -552 325 -188 653 -380 730 -425
77 -45 155 -90 173 -101 17 -10 32 -21 32 -24 0 -3 -78 -52 -173 -109 -94 -58
-261 -160 -370 -228 -109 -68 -201 -123 -206 -123 -5 0 -74 75 -153 168 -80
92 -259 298 -398 457 -139 160 -278 319 -309 355 -31 36 -92 105 -136 155 -44
49 -146 167 -226 260 -81 94 -180 208 -221 255 -63 71 -73 88 -64 103 6 9 12
17 14 17 2 0 164 -94 360 -208z m-3488 -1504 c200 -115 366 -210 367 -212 3
-2 -127 -366 -589 -1656 -66 -184 -125 -350 -131 -367 -10 -32 -38 -45 -51
-24 -5 7 -7 716 -6 2104 l0 388 23 -12 c12 -7 186 -106 387 -221z m5428 -2309
c-7 -5 -14 -7 -15 -5 -2 2 -223 651 -538 1584 l-173 512 27 19 c14 10 107 67
206 127 99 60 252 152 340 206 l160 97 3 -1267 c2 -990 -1 -1267 -10 -1273z
m-921 2084 c-4 -8 -231 -392 -754 -1278 -127 -214 -255 -431 -284 -482 -71
-122 -564 -954 -747 -1260 l-144 -243 -43 0 -44 0 -234 393 c-129 215 -319
536 -424 712 -478 805 -786 1323 -1025 1723 -142 239 -258 436 -258 438 0 2
891 4 1981 4 1089 0 1978 -3 1976 -7z m-3961 -150 c15 -27 139 -237 277 -468
137 -231 264 -445 282 -475 18 -30 122 -206 232 -390 109 -184 246 -414 303
-510 101 -171 177 -299 568 -955 104 -176 189 -321 188 -322 -1 -1 -515 94
-1141 211 -627 118 -1259 235 -1405 262 -146 26 -268 50 -272 54 -7 5 54 181
400 1145 55 154 148 413 206 575 57 162 132 372 166 465 34 94 84 234 113 313
28 78 52 142 53 142 1 0 14 -21 30 -47z m4031 -15 c12 -35 134 -396 271 -803
138 -407 285 -841 327 -965 110 -320 287 -861 283 -865 -2 -1 -194 -35 -428
-75 -401 -68 -1467 -252 -2228 -384 l-132 -23 23 41 c28 49 289 492 547 926
103 173 213 360 245 415 32 55 97 165 145 245 48 80 139 233 202 340 64 107
237 400 385 650 148 250 283 479 299 507 16 29 31 53 34 53 3 0 15 -28 27 -62z
m-3645 -3007 c409 -77 905 -169 1103 -205 198 -37 372 -69 388 -72 l27 -6 0
-479 c0 -263 -2 -479 -4 -479 -2 0 -61 34 -132 76 -71 42 -228 135 -349 207
-121 72 -251 149 -290 172 -38 24 -304 181 -590 350 -286 170 -607 359 -712
422 -145 86 -193 119 -193 134 0 10 2 19 5 19 2 0 339 -63 747 -139z m3988 70
c0 -3 -401 -240 -892 -526 -1320 -770 -1362 -795 -1370 -795 -5 0 -8 218 -8
485 0 323 3 485 10 485 6 0 86 13 178 30 184 32 354 61 877 150 193 33 537 93
765 133 370 66 416 72 428 59 6 -9 12 -18 12 -21z m-4426 -535 c-6 -16 -36
-22 -157 -32 -63 -5 -77 -9 -73 -21 3 -8 6 -19 6 -24 0 -5 87 -9 203 -10 l202
-1 -95 -25 c-55 -14 -139 -27 -201 -30 -91 -5 -117 -3 -176 15 -70 22 -172 81
-207 120 l-19 22 261 0 c222 0 261 -2 256 -14z m4554 -3 c-3 -14 -21 -20 -91
-30 -49 -6 -90 -13 -93 -15 -2 -2 10 -20 26 -39 16 -19 29 -37 30 -41 0 -5
-106 -8 -235 -8 -197 0 -235 2 -235 14 0 19 13 22 143 37 59 7 107 17 107 22
0 4 -12 24 -26 43 l-26 34 202 0 c186 0 201 -1 198 -17z m-711 -533 c6 0 9 -9
6 -20 -5 -19 -14 -20 -314 -20 -204 0 -310 4 -314 10 -20 33 1 35 306 33 167
-2 309 -3 316 -3z m-2917 -20 c0 -20 -7 -20 -360 -20 -353 0 -360 0 -360 20 0
20 7 20 360 20 353 0 360 0 360 -20z"/>
<path d="M14565 14421 c-107 -28 -198 -132 -213 -243 l-5 -38 72 0 c60 0 73 3
77 18 18 60 48 101 85 116 105 42 201 -8 203 -107 2 -76 -32 -133 -230 -399
l-194 -258 0 -65 0 -65 290 0 290 0 0 70 0 70 -190 0 c-104 0 -190 2 -190 5 0
3 41 61 90 128 269 364 284 391 284 507 1 120 -46 198 -143 241 -49 22 -177
33 -226 20z"/>
<path d="M15318 14421 c-84 -27 -144 -85 -174 -168 -16 -46 -20 -636 -4 -693
18 -65 63 -123 121 -155 51 -28 61 -30 164 -30 95 0 116 3 152 22 51 27 87 64
116 118 21 38 22 53 25 360 2 227 0 332 -9 362 -20 72 -60 125 -120 158 -48
26 -65 30 -149 32 -52 1 -107 -2 -122 -6z m187 -147 c66 -31 70 -54 70 -374 0
-324 -4 -348 -69 -375 -44 -19 -117 -19 -160 -1 -62 26 -66 48 -66 376 0 324
3 343 63 373 42 20 120 21 162 1z"/>
</g>
</svg>
